<svg version="1.1" id="Layer_1" xmlns="http://www.w3.org/2000/svg" xmlns:xlink="http://www.w3.org/1999/xlink" x="0px" y="0px"
	 viewBox="0 0 480.1 100" style="enable-background:new 0 0 480.1 100;" xml:space="preserve">
<style type="text/css">
	.st0{fill:#FFFFFF;}
	.st1{fill:#222533;}
</style>
<g>
	<g>
		<rect x="320.1" y="60" class="st0" width="20" height="20"/>
		<rect x="300.1" y="40" class="st0" width="20" height="20"/>
		<rect x="280.1" y="20" class="st0" width="20" height="20"/>
		<rect x="360.1" y="60" class="st0" width="20" height="20"/>
		<rect x="340.1" y="40" class="st0" width="20" height="20"/>
		<rect x="320.1" y="20" class="st0" width="20" height="20"/>
		<rect x="60" y="60" class="st0" width="20" height="20"/>
		<rect x="40" y="40" class="st0" width="20" height="20"/>
		<rect x="20" y="20" class="st0" width="20" height="20"/>
		<rect x="100" y="60" class="st0" width="20" height="20"/>
		<rect x="80" y="40" class="st0" width="20" height="20"/>
		<rect x="60" y="20" class="st0" width="20" height="20"/>
	</g>
	<g>
		<rect x="320.1" y="40" class="st1" width="20" height="20"/>
		<path class="st1" d="M0,0v60h20v20h20v20h120V80h20V60h20V40h20V20h0.1h40v40h20v20h20v20h120V80h20V60h20V40h20V20V0H0z M100,80
			V60H80v20H60V60H40V40H20V20h20v20h20V20h20v20h20v20h20v20H100z M360.1,80V60h-20v20h-20V60h-20V40h-20V20h20v20h20V20h20v20h20
			v20h20v20H360.1z"/>
		<rect x="60" y="40" class="st1" width="20" height="20"/>
	</g>
</g>
</svg>
