<svg width="40" height="40" viewBox="0 0 40 40" fill="none" xmlns="http://www.w3.org/2000/svg">
<g clip-path="url(#clip0)">
<path fill-rule="evenodd" clip-rule="evenodd" d="M35.131 37.039L39.6355 2.52946C39.7513 1.63955 38.8612 0.966139 38.0706 1.34617L0.774527 19.2358C-0.146012 19.6768 -0.0415762 21.0537 0.933433 21.3529L10.5309 24.2841L14.9848 35.9878C15.2698 36.7369 16.2008 36.9563 16.7699 36.4059L21.6749 31.677C22.189 31.1812 22.9653 31.1042 23.5656 31.49L33.4531 37.8441C34.1337 38.2819 35.025 37.8538 35.131 37.039ZM13.4324 22.1635L30.891 9.32441C31.2046 9.09436 31.5744 9.52689 31.3109 9.81527L17.2425 25.2705C16.7479 25.8142 16.4537 26.5169 16.4083 27.26L16.1684 31.2068C16.1366 31.7336 15.4268 31.8351 15.251 31.3397L12.7773 24.3461C12.4945 23.5484 12.7633 22.6565 13.4324 22.1635Z" fill="#232D91"/>
</g>
<defs>
<clipPath id="clip0">
<rect width="40" height="40" fill="white"/>
</clipPath>
</defs>
</svg>
