<svg width="40" height="40" viewBox="0 0 40 40" fill="none" xmlns="http://www.w3.org/2000/svg">
<g clip-path="url(#clip0)">
<path fill-rule="evenodd" clip-rule="evenodd" d="M39.9137 6.00633C38.3997 6.8129 36.7736 7.38693 35.0896 7.70925C36.7966 6.51041 38.0118 4.73091 38.5096 2.70104C36.8986 3.82188 35.1081 4.65766 33.2156 5.17214C30.3665 2.52657 26.1031 2.12606 22.8158 4.19517C19.5284 6.26429 18.0345 10.2885 19.1717 14.0116C12.2673 14.1472 5.62921 11.3351 0.910711 6.27562C-1.08458 10.3557 0.424918 15.2899 4.35902 17.5475C2.99762 17.6021 1.64279 17.3295 0.407518 16.7523L0.414828 16.8568C0.725955 20.9182 3.83085 24.207 7.8572 24.7401C6.6236 25.1703 5.30828 25.3126 4.01134 25.1561C5.37587 28.5693 8.7498 30.7384 12.4112 30.5563C9.54768 33.1579 5.89357 34.716 2.03814 34.9792C1.34148 35.028 0.642507 35.0348 -0.0550027 34.9995C7.77499 39.3268 17.3361 39.0115 24.8619 34.1777C32.3877 29.3439 36.6719 20.7666 36.0267 11.8245C36.0003 11.4482 35.9745 11.0789 35.9492 10.7165C37.5386 9.39456 38.881 7.79971 39.9137 6.00633V6.00633Z" fill="#00665E"/>
</g>
<defs>
<clipPath id="clip0">
<rect width="40" height="40" fill="white"/>
</clipPath>
</defs>
</svg>
